<?xml version="1.0" encoding="UTF-8"?>
<svg width="380px" height="206px" viewBox="0 0 210 36" version="1.1" xmlns="http://www.w3.org/2000/svg" xmlns:xlink="http://www.w3.org/1999/xlink">
    <title>2921FDC4-8DBA-4B02-94F0-6153C61ED933</title>
    <g id="Iniciar-Sesión" stroke="none" stroke-width="1" fill="none" fill-rule="evenodd">
        <g id="Iniciar_sesión_vacio" transform="translate(-535.000000, -26.000000)" fill="#FFFFFF" fill-rule="nonzero">
            <path d="M581.996682,36.1706454 C592.589914,36.1706454 597.179164,40.2331454 597.179164,48.6359232 C597.179164,57.0734232 592.589914,61.1706454 581.996682,61.1706454 C571.368945,61.1706454 566.8142,57.1081454 566.8142,48.6359232 C566.8142,40.1984232 571.368945,36.1706454 581.996682,36.1706454 Z M546.731918,36.5178677 L557.152621,50.8581454 L557.152621,36.5178677 L566.124088,36.5178677 L566.124088,60.8234232 L554.39217,60.8234232 L543.971466,46.4831454 L543.971466,60.8234232 L535,60.8234232 L535,36.5178677 L546.731918,36.5178677 Z M604.632382,36.5178677 L611.429993,54.5734232 L618.227605,36.5178677 L628.096218,36.5178677 L618.089582,60.8234232 L604.770405,60.8234232 L594.763769,36.5178677 L604.632382,36.5178677 Z M643.79562,36.5178677 L653.802256,60.8234232 L643.933643,60.8234232 L642.277372,56.4484232 L631.994691,56.4484232 L630.338421,60.8234232 L620.469808,60.8234232 L630.476443,36.5178677 L638.626223,36.5189755 C638.7953,37.4496733 639.56155,38.1219715 640.538833,38.138036 C641.575116,38.1549637 642.397689,37.4740881 642.561572,36.518964 L643.79562,36.5178677 Z M664.463835,36.5178677 L664.463835,53.1845343 L680.33643,53.1845343 L680.33643,60.8234232 L655.492369,60.8234232 L655.492369,36.5178677 L664.463835,36.5178677 Z M704.352356,36.5178677 L714.358991,60.8234232 L704.490378,60.8234232 L702.834107,56.4484232 L692.551427,56.4484232 L690.895156,60.8234232 L681.026543,60.8234232 L691.033179,36.5178677 L704.352356,36.5178677 Z M736.097545,36.5178677 C741.583942,36.5178677 743.274718,39.0178677 743.274718,42.6984232 C743.274718,44.2609232 742.5501,45.8581454 741.376908,47.2470343 C743.481752,48.7748121 745,50.9970343 745,53.6359232 C745,57.5536381 742.708108,60.7025938 737.439953,60.8200277 L737.132714,60.8234232 L715.049104,60.8234232 L715.049104,36.5178677 L736.097545,36.5178677 Z M639.469225,53.0135065 C639.342735,53.1532384 639.242927,53.2783033 639.127219,53.388934 C637.972806,54.4926805 635.95869,54.3744602 634.956446,53.1503515 C634.910856,53.0946637 634.80864,53.0263576 634.752968,53.0392552 C634.475261,53.1034639 634.204225,53.1928624 633.928323,53.2741127 C634.537453,54.4516596 636.034825,55.1498531 637.594087,55.0063032 C639.037192,54.8734625 640.116523,53.9096807 640.350545,53.2646141 C640.057039,53.1808495 639.763483,53.0972711 639.469225,53.0135065 Z M724.020571,51.6567566 L724.020571,54.226201 L734.30125,54.2249163 C735.134147,54.2133538 736.028534,54.0977288 736.028534,52.9414788 C736.028534,51.7638167 735.100715,51.6656782 734.255047,51.6575 L724.020571,51.6567566 Z M637.029396,51.9174535 L636.975595,51.9299477 C636.407647,52.1612721 635.841863,52.398475 635.250545,52.6444956 C635.722409,53.2893781 636.337243,53.5720104 637.083684,53.5618004 C637.801836,53.5520029 638.391776,53.2684939 638.839434,52.6452691 C638.257907,52.4002282 637.701028,52.1638504 637.142083,51.9329386 L637.087921,51.9187904 L637.029396,51.9174535 Z M581.996682,43.8095343 C576.682814,43.8095343 575.785667,46.0664788 575.785667,48.6359232 C575.785667,51.2400899 576.717319,53.5317566 581.996682,53.5317566 C587.276045,53.5317566 588.207697,51.2053677 588.207697,48.6359232 C588.207697,46.101201 587.310551,43.8095343 581.996682,43.8095343 Z M637.133668,40.0249568 L633.268305,40.0291657 C632.828269,40.0300291 632.523366,40.70791 632.513707,41.1340305 C632.507,41.4295905 632.510954,41.7254382 632.511905,42.0211421 C632.513607,42.5512506 632.788529,42.8231159 633.348084,42.8520867 C633.386622,42.8541013 633.42446,42.8689704 633.47516,42.8807698 C633.47516,44.1439265 633.476111,45.3980658 633.471807,46.652301 C633.471606,46.7068372 633.438924,46.7837729 633.39473,46.8122641 C632.961,47.0911802 632.521615,47.3620862 632.080477,47.637357 C631.297952,47.0620655 630.548008,46.4626476 629.968284,45.7005807 C629.771038,45.4412822 629.620339,45.139199 629.502973,44.8372117 C629.391512,44.5505733 629.508178,44.3638937 629.799467,44.244509 C629.913179,44.197887 630.03525,44.1634002 630.157121,44.1427274 C630.832641,44.028331 631.501854,44.104979 632.168915,44.2166413 L632.520908,44.2784621 L632.882322,44.3441321 L632.882322,43.535827 C632.612705,43.4874783 632.353999,43.4335657 632.09279,43.3956734 C631.365419,43.2900546 630.637647,43.2251101 629.906272,43.3749526 C628.993668,43.5618719 628.514993,44.1297289 628.667394,44.9277216 C628.725652,45.2328266 628.87475,45.5351016 629.040664,45.8058157 C629.524544,46.5953187 630.220384,47.2080228 630.944001,47.7896937 C632.245691,48.8359529 633.678762,49.6946692 635.17975,50.447479 C637.392443,51.5572918 639.67976,52.4821038 642.159468,52.8934991 C642.951553,53.0248751 643.749244,53.0882847 644.538226,52.8714352 C645.064748,52.726725 645.48086,52.4444034 645.605584,51.9020158 C645.698476,51.4980551 645.591019,51.1104984 645.394975,50.7453413 C645.018752,50.0446215 644.467456,49.48017 643.870314,48.9533711 L643.550943,48.6797773 L643.550943,48.6797773 L642.904006,48.1457854 L642.904006,48.1457854 C643.310259,47.7997183 643.713408,47.4771061 644.091433,47.1294083 C644.652439,46.6133535 645.174406,46.0628599 645.477357,45.3604613 C645.895421,44.3915695 645.454534,43.6011072 644.386776,43.3761037 C643.638034,43.2182991 642.893145,43.2943235 642.150759,43.4012373 C641.85183,43.4442779 641.555569,43.5045005 641.252117,43.5666986 L640.790311,43.6595765 L640.790311,42.865469 C640.866286,42.8578425 640.898969,42.8528542 640.931801,42.8516551 C641.469884,42.8313659 641.75842,42.550723 641.762274,42.0392729 C641.764577,41.7355588 641.769581,41.431605 641.759772,41.1282268 C641.746058,40.7011469 641.439454,40.0278707 640.999068,40.0272951 L637.133668,40.0249568 Z M630.933734,48.6250227 C630.288208,49.1251352 629.688049,49.6444306 629.228587,50.2821922 C629.021939,50.5690936 628.837374,50.8850502 628.723558,51.2124229 C628.463249,51.9611178 628.819837,52.5767488 629.616302,52.8378236 C630.320235,53.0685331 631.042854,53.0340039 631.763924,52.9484762 C633.039786,52.7971184 634.261838,52.4471004 635.465703,52.036633 C635.762385,51.9353846 636.053821,51.8209422 636.383879,51.6992009 C635.867208,51.4599292 635.400401,51.2437238 634.926799,51.0243836 C634.878419,51.408632 634.874698,51.4381896 634.519398,51.5098675 L634.42302,51.5288941 L634.423997,51.1055427 L634.420621,50.9036249 C634.418873,50.8466844 634.407131,50.7614374 634.36751,50.7386518 C634.088365,50.5783576 633.800777,50.4309767 633.485459,50.2633368 C633.485459,50.7481965 633.482061,51.1904795 633.487907,51.6325754 C633.489356,51.741918 633.49695,51.8201 633.346661,51.8559393 C632.409249,52.0796308 631.466642,52.2725828 630.491958,52.2143322 C630.241093,52.1993602 629.984731,52.1308164 629.750503,52.0416392 C629.499688,51.946099 629.405307,51.7611945 629.499488,51.5272566 C629.618001,51.2328691 629.743109,50.9188308 629.954453,50.6834893 C630.455985,50.1251262 631.009978,49.608217 631.552479,49.0648728 C631.376758,48.9399968 631.155721,48.7828373 630.933734,48.6250227 Z M642.188897,48.6445248 C643.024025,49.2677813 643.833227,49.908497 644.427816,50.753879 C644.578316,50.9678986 644.69358,51.2148701 644.773009,51.4620334 C644.869855,51.7633971 644.75389,51.9380375 644.443132,52.0623626 C643.981224,52.2471236 643.490387,52.2430945 643.015066,52.1847212 C642.324181,52.0997753 641.642055,51.9501726 640.955625,51.8310277 C640.830951,51.8093955 640.774595,51.7638288 640.776998,51.626745 C640.788259,50.9961979 640.790611,50.3654589 640.784855,49.7348159 C640.783404,49.5807525 640.834004,49.4934084 640.973993,49.4105249 C641.377193,49.1718514 641.767129,48.9126009 642.188897,48.6445248 Z M639.82135,50.1020835 L639.82135,51.472202 C639.414101,51.4287679 639.372795,51.4152094 639.368416,51.1046709 L639.367901,51.02066 L639.367671,50.5701794 C639.370255,50.2576967 639.404954,50.2457265 639.82135,50.1020835 Z M697.692767,42.7678677 L694.89781,50.1984232 L700.487724,50.1984232 L697.692767,42.7678677 Z M639.824754,42.8671477 C639.829208,42.9515181 639.838267,43.0436587 639.838317,43.1358473 C639.839168,45.0218768 639.839017,46.9078582 639.839017,48.7937917 C639.838926,49.1576258 639.824998,49.2054372 639.477685,49.3251507 L639.374457,49.359874 L639.374457,47.6610235 C638.810949,47.6584334 638.260653,47.5582826 637.76261,47.8719253 C637.553853,48.0033972 637.343945,48.1334781 637.139742,48.2712814 C636.529075,48.6834404 635.883396,48.9639178 635.114684,48.8439555 L634.919892,48.8054669 L634.919892,49.3714815 C634.498679,49.2405452 634.434896,49.1926349 634.427152,48.8523132 L634.426203,48.7519663 L634.425902,42.8671477 L639.824754,42.8671477 Z M643.374689,44.0875805 L643.727022,44.0993191 C643.980773,44.1161068 644.238379,44.1711226 644.479418,44.2501688 C644.763249,44.3431728 644.887822,44.5529235 644.770656,44.8174981 C644.607244,45.1866843 644.415254,45.5579329 644.161653,45.873926 C643.609806,46.5616473 642.912815,47.1128604 642.186645,47.6418657 C642.016042,47.5331132 641.846419,47.4250215 641.668891,47.311906 L641.395561,47.1377542 L641.395561,48.1916878 C641.267559,48.2739597 641.124467,48.3659175 640.961007,48.4709809 L640.790561,48.5805396 L640.791104,46.471761 L640.789799,44.7092413 C640.78956,44.5805513 640.796267,44.4942624 640.966335,44.4530605 C641.646622,44.2883369 642.328598,44.1365908 643.025143,44.0973593 L643.374689,44.0875805 Z M633.453789,47.7243174 L633.453789,48.5604903 C633.230117,48.4187059 633.033422,48.2939491 632.79884,48.1452578 C633.023162,48.0010752 633.222359,47.8730567 633.453789,47.7243174 Z M724.020571,42.4206454 L724.020571,45.0595343 L732.529765,45.0587708 C733.375433,45.0503715 734.303251,44.9495806 734.303251,43.7400899 C734.303251,42.5305992 733.375433,42.4298083 732.529765,42.421409 L724.020571,42.4206454 Z M639.82135,41.327713 L639.82135,41.9192166 L634.426203,41.9192166 L634.426203,41.327713 L639.82135,41.327713 Z M640.640209,34.6709346 C641.351459,34.6794549 641.879807,35.2265852 641.874139,35.9484213 C641.86855,36.6530575 641.312819,37.1824305 640.59135,37.1706454 C639.898622,37.1592585 639.375544,36.62033 639.374174,35.9165697 C639.372829,35.2104205 639.929838,34.662494 640.640209,34.6709346 Z M634.212601,30.3953409 C635.0661,30.4055653 635.700116,31.0621216 635.693314,31.9283249 C635.686608,32.7738884 635.019732,33.409136 634.15397,33.3949939 C633.322697,33.3813296 632.695003,32.7346154 632.693369,31.890103 C632.691746,31.042724 633.360156,30.3852121 634.212601,30.3953409 Z M641.144941,26.0001539 C642.282939,26.0137864 643.128295,26.8891948 643.119226,28.0441326 C643.110284,29.1715506 642.221115,30.0185474 641.066766,29.9996913 C639.958403,29.9814722 639.121478,29.1191866 639.119298,27.9931701 C639.117135,26.8633314 640.008347,25.9866489 641.144941,26.0001539 Z" id="Combined-Shape"></path>
        </g>
    </g>
</svg>