<?xml version="1.0" encoding="UTF-8"?>
<svg width="164px" height="28px" viewBox="0 0 164 28" version="1.1" xmlns="http://www.w3.org/2000/svg" xmlns:xlink="http://www.w3.org/1999/xlink">
    <title>7324E1AA-5100-41FA-9561-311E001BC900</title>
    <g id="Panel-de-control" stroke="none" stroke-width="1" fill="none" fill-rule="evenodd">
        <g id="Panel-de-control-SuperAdmin" transform="translate(-151.000000, -19.000000)" fill="#02B8FF" fill-rule="nonzero">
            <g id="logo_nova" transform="translate(151.000000, 19.000000)">
                <path d="M36.552975,7.91050201 C44.7921551,7.91050201 48.3615719,11.0702242 48.3615719,17.6057181 C48.3615719,24.1682181 44.7921551,27.3549465 36.552975,27.3549465 C28.2869572,27.3549465 24.7443781,24.1952242 24.7443781,17.6057181 C24.7443781,11.0432181 28.2869572,7.91050201 36.552975,7.91050201 Z M9.12482489,8.18056374 L17.2298164,19.3341131 L17.2298164,8.18056374 L24.2076237,8.18056374 L24.2076237,27.0848847 L15.0827988,27.0848847 L6.97780727,15.9313353 L6.97780727,27.0848847 L0,27.0848847 L0,8.18056374 L9.12482489,8.18056374 Z M54.1585195,8.18056374 L59.4455504,22.2237736 L64.7325813,8.18056374 L72.4081693,8.18056374 L64.6252304,27.0848847 L54.2658704,27.0848847 L46.4829315,8.18056374 L54.1585195,8.18056374 Z M84.6188159,8.18056374 L92.4017548,27.0848847 L84.7261668,27.0848847 L83.4379562,23.682107 L75.4403156,23.682107 L74.152105,27.0848847 L66.476517,27.0848847 L74.2594559,8.18056374 L80.5981051,8.18105047 C80.729472,8.90512091 81.3255186,9.4281979 82.0857588,9.44069469 C82.8917161,9.45385998 83.5314709,8.92434434 83.6589811,8.18152923 L84.6188159,8.18056374 Z M100.694094,8.18056374 L100.694094,21.1435267 L113.039446,21.1435267 L113.039446,27.0848847 L93.716287,27.0848847 L93.716287,8.18056374 L100.694094,8.18056374 Z M131.718499,8.18056374 L139.501438,27.0848847 L131.82585,27.0848847 L130.537639,23.682107 L122.539999,23.682107 L121.251788,27.0848847 L113.5762,27.0848847 L121.359139,8.18056374 L131.718499,8.18056374 Z M156.409202,8.18056374 C160.676399,8.18056374 161.991447,10.1250082 161.991447,12.9876625 C161.991447,14.2029403 161.427855,15.4452242 160.515373,16.5254711 C162.152474,17.7137428 163.333333,19.4421378 163.333333,21.494607 C163.333333,24.5313011 161.562919,26.9741528 157.495241,27.0812243 L157.214333,27.0848847 L140.038192,27.0848847 L140.038192,8.18056374 L156.409202,8.18056374 Z M81.2538417,21.0105051 C81.1554603,21.1191854 81.0778318,21.2164581 80.9878373,21.3025042 C80.0899605,22.1609737 78.5234254,22.0690246 77.7439027,21.1169401 C77.7084433,21.0736273 77.6289423,21.0205003 77.585642,21.0305318 C77.3696476,21.0804719 77.1588413,21.1500041 76.9442512,21.2131988 C77.4180191,22.1290686 78.5826415,22.672108 79.7954013,22.5604581 C80.9178157,22.4571375 81.7572956,21.7075294 81.939313,21.205811 C81.7110306,21.1406607 81.4827092,21.0756553 81.2538417,21.0105051 Z M154.904686,19.95538 L147.015999,19.9552551 L147.015999,21.9537119 L155.012083,21.9527127 C155.659892,21.9437196 156.355526,21.8537891 156.355526,20.9544835 C156.355526,20.0551779 155.659892,19.9652474 155.012083,19.9562543 L154.904686,19.95538 Z M79.3561973,20.1580194 L79.3143517,20.1677371 C78.8726141,20.3476561 78.4325601,20.5321472 77.9726463,20.7234966 C78.3396513,21.2250718 78.8178561,21.444897 79.3984212,21.4369559 C79.9569836,21.4293356 80.415826,21.2088286 80.7640043,20.7240982 C80.3117054,20.5335108 79.8785775,20.3496614 79.4438424,20.1700633 L79.4017163,20.1590592 L79.3561973,20.1580194 Z M36.552975,13.85186 C32.4199661,13.85186 31.7221854,15.6072613 31.7221854,17.6057181 C31.7221854,19.631181 32.4468038,21.4135884 36.552975,21.4135884 C40.6591462,21.4135884 41.3837647,19.6041749 41.3837647,17.6057181 C41.3837647,15.6342674 40.6859839,13.85186 36.552975,13.85186 Z M79.437297,10.9082997 L76.4309038,10.9115733 C76.0886534,10.9122449 75.8515073,11.4394855 75.8439943,11.7709126 C75.838778,12.0007926 75.8418533,12.2308964 75.8425929,12.4608883 C75.8439164,12.8731949 76.057745,13.0846457 76.4929542,13.1071786 C76.5229283,13.1087454 76.5523575,13.1203103 76.591791,13.1294876 C76.591791,14.1119428 76.5925307,15.0873845 76.5891829,16.0629008 C76.5890272,16.1053178 76.5636076,16.1651567 76.5292346,16.1873165 C76.1918891,16.4042513 75.8501448,16.6149559 75.507038,16.8290555 C74.898407,16.3816065 74.3151177,15.9153926 73.8642208,15.3226739 C73.7108076,15.1209973 73.593597,14.8860437 73.502312,14.6511647 C73.4156206,14.4282236 73.5063605,14.2830284 73.7329184,14.1901736 C73.8213616,14.1539121 73.9163057,14.1270891 74.0110941,14.1110102 C74.5364983,14.0220352 75.0569975,14.0816503 75.5758229,14.1684988 L75.849595,14.2165817 L76.1306951,14.2676583 L76.1306951,13.6389765 C75.9209928,13.601372 75.7197767,13.55944 75.5166142,13.5299682 C74.9508812,13.4478203 74.3848368,13.3973078 73.8159896,13.513852 C73.1061861,13.6592337 72.7338837,14.1009002 72.8524179,14.7215612 C72.8977294,14.9588651 73.0136944,15.1939679 73.142739,15.4045234 C73.5190898,16.0185812 74.0602985,16.4951289 74.6231119,16.9475395 C75.6355376,17.7612967 76.750148,18.4291872 77.917583,19.0147059 C79.6385666,19.8778936 81.4175911,20.5971919 83.3462528,20.917166 C83.9623191,21.0193473 84.5827451,21.0686659 85.1963978,20.9000052 C85.6059149,20.7874528 85.9295579,20.5678693 86.0265652,20.1460123 C86.0988146,19.8318206 86.0152373,19.5303876 85.8627584,19.2463765 C85.5701405,18.7013722 85.1413544,18.2623545 84.6769107,17.852622 C84.4317065,17.6363587 84.1747852,17.4322572 83.925338,17.2244997 C84.2413123,16.9553365 84.5548731,16.7044159 84.8488923,16.4339842 C85.2852303,16.0326083 85.691205,15.6044466 85.926833,15.0581365 C86.2519942,14.304554 85.909082,13.6897501 85.0786033,13.5147473 C84.4962483,13.3920104 83.9168907,13.4511405 83.3394795,13.5342957 C83.1069786,13.5677717 82.8765539,13.6146115 82.6405352,13.6629878 L82.2813529,13.7352262 L82.2813529,13.117587 C82.3404448,13.1116553 82.3658644,13.1077755 82.3914008,13.1068428 C82.8099101,13.0910624 83.034327,12.8727846 83.0373244,12.47499 C83.0391151,12.238768 83.0430078,12.0023595 83.035378,11.7663986 C83.0247119,11.4342254 82.7862422,10.9105661 82.4437193,10.9101184 L79.437297,10.9082997 Z M74.6151262,17.5972399 C74.1130507,17.9862163 73.6462604,18.3901127 73.2889008,18.8861495 C73.1281745,19.109295 72.9846244,19.355039 72.8961006,19.6096623 C72.6936382,20.1919805 72.9709844,20.6708047 73.590457,20.8738628 C74.1379602,21.0533035 74.6999972,21.0264475 75.2608295,20.9599259 C76.2531669,20.8422032 77.2036518,20.569967 78.1399915,20.2507145 C78.3707441,20.1719658 78.5974164,20.0829551 78.8541278,19.9882674 C78.4522731,19.8021672 78.089201,19.6340074 77.7208439,19.4634095 C77.6837853,19.7577412 77.6804163,19.7844986 77.4163503,19.8384955 L77.3290152,19.8558065 L77.3297751,19.5265332 L77.3271499,19.369486 C77.3257898,19.3251989 77.3166576,19.2588957 77.2858414,19.2411736 C77.1410996,19.1580581 76.993439,19.0794064 76.838415,18.997574 L76.5998011,18.8714842 L76.5991908,19.5913256 L76.6017052,19.9364475 C76.6028322,20.0214918 76.6087389,20.0823 76.4918471,20.110175 C75.7627495,20.2841573 75.0296105,20.434231 74.2715232,20.3889251 C74.0764054,20.3772801 73.8770131,20.3239683 73.6948358,20.2546083 C73.499757,20.1802992 73.4263498,20.0364846 73.4996015,19.8545329 C73.5917782,19.6255648 73.6890845,19.3813129 73.8534637,19.1982694 C74.2435437,18.7639871 74.6744271,18.3619466 75.0963726,17.9393455 C74.9597008,17.8422197 74.7877827,17.7199845 74.6151262,17.5972399 Z M83.3691422,17.6124082 C84.018686,18.0971632 84.6480654,18.5954976 85.1105238,19.253017 C85.2275788,19.4194767 85.3172287,19.6115656 85.3790066,19.8038038 C85.4543313,20.0381978 85.3641363,20.1740292 85.1224356,20.2707265 C84.763174,20.4144294 84.3814122,20.4112957 84.011718,20.3658942 C83.4743632,20.2998252 82.9438206,20.1834676 82.4099303,20.0907993 C82.312962,20.0739743 82.2691296,20.0385335 82.2709981,19.9319128 C82.2797568,19.4414873 82.2815864,18.9509125 82.2771098,18.4604124 C82.2759809,18.3405853 82.3153365,18.2726509 82.4242167,18.2081861 C82.7378164,18.0225511 83.0411004,17.8209118 83.3691422,17.6124082 Z M81.5277169,18.7460649 L81.5277169,19.8117127 C81.2157663,19.7784424 81.1798791,19.76771 81.1756105,19.5366756 L81.175034,19.4605134 L81.1749106,19.1041614 C81.1773311,18.8669366 81.2065299,18.8568639 81.5277169,18.7460649 Z M126.538819,13.0416749 L124.364964,18.8209958 L128.712674,18.8209958 L126.538819,13.0416749 Z M81.530364,13.1188927 L81.5369233,13.2211066 L81.5409134,13.3278813 L81.5407275,17.8127332 C81.5360353,18.0160304 81.5024951,18.0571864 81.2749005,18.1367588 L81.1801335,18.1687909 L81.1801335,16.8474627 C80.7418491,16.8454482 80.3138415,16.7675531 79.9264742,17.0114975 C79.7641077,17.1137534 79.6008459,17.2149274 79.4420218,17.3221078 C78.9742551,17.6378188 78.4800756,17.8541909 77.8940876,17.7715483 L77.7154715,17.7375854 L77.7154715,18.1778189 C77.3938177,18.0778312 77.340148,18.0400924 77.3326022,17.7882355 L77.3314909,17.6959738 L77.3312573,13.1188927 L81.530364,13.1188927 Z M84.2524605,14.0682302 L84.5654613,14.0772482 C84.7628236,14.0903053 84.9631833,14.1330954 85.1506581,14.1945758 C85.3714158,14.2669122 85.4683063,14.4300516 85.377177,14.6358319 C85.2500788,14.9229767 85.100753,15.2117256 84.9035075,15.457498 C84.4742932,15.9923923 83.9321892,16.4211136 83.3673905,16.8325622 C83.2346997,16.7479769 83.1027701,16.6639056 82.9646929,16.5759269 L82.7521028,16.4404755 L82.7521028,17.2602016 C82.6525458,17.3241909 82.5412521,17.3957136 82.4141162,17.4774296 L82.2815475,17.5626419 L82.2819697,15.9224808 L82.2809544,14.5516321 C82.2807689,14.4515399 82.2859852,14.3844263 82.4182608,14.3523804 C82.9221769,14.2303629 83.4272848,14.1175007 83.9422379,14.0806699 L84.2524605,14.0682302 Z M76.575169,16.8966913 L76.575169,17.547048 C76.4012021,17.4367713 76.2482172,17.3397382 76.0657641,17.2240894 C76.240237,17.1119473 76.3951684,17.0123775 76.575169,16.8966913 Z M153.5628,12.7717414 L147.015999,12.7716131 L147.015999,14.8240823 L153.5628,14.823954 C154.238567,14.8215167 155.01364,14.7727705 155.01364,13.7978477 C155.01364,12.8742366 154.318006,12.7818755 153.670197,12.7726394 L153.5628,12.7717414 Z M81.5277169,11.9215545 L81.5277169,12.3816129 L77.3314909,12.3816129 L77.3314909,11.9215545 L81.5277169,11.9215545 Z M82.1646073,6.74406026 C82.7178015,6.75068716 83.1287388,7.17623291 83.1243301,7.73766099 C83.1199835,8.2857114 82.6877481,8.69744596 82.1266058,8.68827979 C81.5878173,8.67942329 81.1809783,8.26025669 81.1799132,7.71288755 C81.1788671,7.16366039 81.612096,6.7374953 82.1646073,6.74406026 Z M77.1653561,3.41859849 C77.8291886,3.42655077 78.3223128,3.93720568 78.3170224,4.61091936 C78.3118065,5.26857986 77.7931245,5.76266134 77.1197544,5.75166193 C76.4732089,5.74103412 75.9850025,5.23803421 75.9837312,4.58119124 C75.9824691,3.92211865 76.5023433,3.41072054 77.1653561,3.41859849 Z M82.5571762,0.000119733831 C83.4422862,0.0107227659 84.0997851,0.691595976 84.0927312,1.58988089 C84.0857767,2.46676155 83.3942007,3.12553686 82.4963739,3.11087098 C81.6343132,3.09670057 80.9833714,2.42603402 80.9816763,1.55024339 C80.9799935,0.671479943 81.6731591,-0.0103842045 82.5571762,0.000119733831 Z" id="Combined-Shape"></path>
            </g>
        </g>
    </g>
</svg>