<?xml version="1.0" encoding="UTF-8"?>
<svg width="37px" height="42px" viewBox="0 0 37 42" version="1.1" xmlns="http://www.w3.org/2000/svg" xmlns:xlink="http://www.w3.org/1999/xlink">
    <title>44B67C06-67DC-4C44-B830-5E8B9BD9C7AE</title>
    <defs>
        <filter id="filter-1">
            <feColorMatrix in="SourceGraphic" type="matrix" values="0 0 0 0 0.007843 0 0 0 0 0.721569 0 0 0 0 1.000000 0 0 0 1.000000 0"></feColorMatrix>
        </filter>
    </defs>
    <g id="Almacenamiento(Gabinetes)" stroke="none" stroke-width="1" fill="none" fill-rule="evenodd">
        <g id="LOGOAPP-ADMINLAB" transform="translate(-12.000000, -14.000000)" filter="url(#filter-1)">
            <g transform="translate(12.000000, 14.000000)">
                <path d="M22.9913683,36.6333985 C23.5462878,36.7965778 24.0998832,36.9593943 24.6533841,37.1225737 C24.2120589,38.3792086 22.1766287,40.2567232 19.4551865,40.5155062 C16.5146897,40.7951515 13.6909086,39.4350215 12.5421957,37.1410776 C13.0624978,36.9827964 13.5736254,36.8086417 14.0973325,36.6835587 C14.2023199,36.6584333 14.3950804,36.7914983 14.4810565,36.8999822 C16.3711124,39.2846316 20.1693842,39.5149331 22.3464055,37.3647575 C22.5646089,37.1492411 22.7528294,36.9056059 22.9913683,36.6333985 Z M18.6027854,34.5283763 C19.6568581,34.9782088 20.707034,35.4386894 21.8036927,35.9160462 C20.9594882,37.1301317 19.8469641,37.6824272 18.4926556,37.7015134 C17.0849986,37.7214033 15.9255279,37.1708156 15.0356757,35.9145394 C16.1507976,35.4352739 17.2177667,34.9731861 18.2888181,34.52255 C18.3801135,34.4840762 18.5104693,34.4889984 18.6027854,34.5283763 Z M25.8763841,11.3353481 C26.7068761,11.3364693 27.2850775,12.6480587 27.3109389,13.4800402 C27.3294383,14.0710423 27.3199999,14.6631656 27.3156582,15.2548218 C27.3083905,16.2511626 26.7642621,16.7978746 25.7495309,16.8373993 C25.6876145,16.8397353 25.6259812,16.8494529 25.4827051,16.8643097 L25.4827051,18.4112869 C26.3684122,18.234874 27.2026795,18.0337931 28.0482731,17.9080241 C29.4482831,17.6997484 30.8530123,17.5516475 32.2650091,17.8590621 C34.2786147,18.2973847 35.1100506,19.8372606 34.3216542,21.7247297 C33.7503429,23.0930514 32.7660037,24.1654516 31.7080443,25.1707625 C30.9951558,25.8481023 30.2348861,26.4765735 29.4687646,27.1507364 C30.0735825,27.6710986 30.6965222,28.1823037 31.2910522,28.72397 C32.4171574,29.7502112 33.4568061,30.8498022 34.1662968,32.2148535 C34.5360021,32.9262052 34.7386463,33.6811928 34.5634681,34.4681367 C34.3282611,35.5247456 33.5435458,36.074728 32.5506175,36.3566336 C31.0627353,36.7790717 29.5584301,36.6555452 28.0646961,36.3996156 C23.3884004,35.5981887 19.07492,33.7965901 14.9021673,31.6345969 C12.0715667,30.1680708 9.36904634,28.4952311 6.91428608,26.4570447 C5.54967043,25.3239092 4.23743835,24.1303185 3.32492596,22.5923115 C3.0120403,22.0649414 2.73086793,21.4760884 2.62100401,20.8817225 C2.33360225,19.3271767 3.23629862,18.2209516 4.95731133,17.8568195 C6.33655663,17.5649159 7.70900622,17.6914324 9.08070073,17.8971852 C9.57329508,17.9710021 10.0611702,18.0760276 10.5696212,18.1702142 L10.5696212,19.7448493 C10.104776,19.6586985 9.66541466,19.5726411 9.22426003,19.4964883 C7.96629922,19.2789621 6.70427986,19.1296465 5.43036802,19.3524987 C5.200541,19.3927709 4.97033643,19.4599536 4.75589413,19.5507764 C4.20657451,19.7833462 3.98656351,20.1470111 4.19675849,20.7054029 C4.41809088,21.2936953 4.70228356,21.8821746 5.07425411,22.3873062 C6.16751342,23.8718661 7.58177549,25.0395741 9.05748207,26.1602823 C9.88938982,25.6240355 10.7179941,25.0962916 11.5359329,24.5529434 C11.6192747,24.4974406 11.680908,24.3475644 11.6812855,24.2413241 C11.6894026,21.797986 11.6876093,19.3548347 11.6876093,16.8941168 C11.5919975,16.8711308 11.5206426,16.8421647 11.4479663,16.8382402 C10.392744,16.781803 9.87428825,16.2521904 9.87107917,15.2195018 C9.86928586,14.64345 9.86182946,14.0671178 9.87447702,13.4913463 C9.89269329,12.6612336 10.4676856,11.3406741 11.2975169,11.3389922 C16.1570134,11.3291811 21.0167932,11.3281533 25.8763841,11.3353481 Z M6.89492376,28.0843244 C7.31355218,28.3917581 7.73039039,28.6979158 8.06176923,28.9411832 C7.03870656,29.9996558 5.99397282,31.0066312 5.04817219,32.0943615 C4.64961306,32.5528233 4.41368112,33.1645919 4.19018649,33.7380793 C4.01257799,34.1938068 4.19056338,34.5540138 4.66355791,34.7401329 C5.10527074,34.9138562 5.58872391,35.0473843 6.06181267,35.0765509 C7.89989581,35.190027 9.67748841,34.814143 11.4452819,34.3783764 C11.7287017,34.308559 11.71438,34.1562548 11.7116476,33.9432478 C11.7006236,33.0820141 11.7070307,32.2204157 11.7070307,31.275875 C12.3016658,31.6024493 12.8440078,31.8895576 13.3704262,32.201822 C13.4451443,32.2462099 13.4672864,32.412277 13.4705842,32.523201 C13.4822677,32.9148532 13.4751069,33.3069611 13.4751069,33.7412694 C14.3263086,33.569369 14.3263086,33.569369 14.4251475,32.7584476 C15.318278,33.1857376 16.1985943,33.606921 17.1729442,34.073039 C16.5505135,34.3101996 16.0009165,34.5331415 15.4414262,34.7303803 C13.1711466,35.5299997 10.8665703,36.2118592 8.46051682,36.5067148 C7.10070465,36.6733288 5.73797159,36.7405942 4.41047757,36.2911557 C2.90848438,35.7825639 2.23602183,34.5832715 2.72691855,33.1247613 C2.94155631,32.4870163 3.28961244,31.8715108 3.67931471,31.3126066 C4.54578039,30.0702024 5.67757528,29.0585785 6.89492376,28.0843244 Z M28.1201943,28.1223158 C27.3248135,28.6445468 26.5894614,29.1495849 25.8290973,29.6145377 C25.565103,29.7760004 25.46968,29.946153 25.4724171,30.2462793 C25.4832714,31.4748161 25.4788353,32.7035399 25.4575987,33.9318898 C25.4530682,34.1989387 25.5593455,34.2877058 25.7944581,34.3298468 C27.0889458,34.5619495 28.3753165,34.8533859 29.6782045,35.0188665 C30.574577,35.1325819 31.5002089,35.1404307 32.3712864,34.7805035 C32.9573217,34.5383094 33.1760113,34.1980977 32.9933767,33.6110201 C32.843588,33.1295286 32.6262198,32.6484108 32.3424046,32.2314857 C31.221113,30.5846221 29.6950993,29.3364631 28.1201943,28.1223158 Z M23.6554151,30.9617422 C22.8463694,31.2500484 22.8014224,31.2660655 22.7995615,31.9306018 L22.7995336,32.0547924 C22.7998167,32.2868951 22.8000055,32.5190911 22.8002886,32.7511938 C22.8013269,33.5158057 22.8234129,33.5391654 23.6554151,33.6308292 L23.6554151,30.9617422 Z M23.6618332,16.8675801 L13.4805433,16.8675801 L13.4811096,28.3316193 C13.4812039,29.1744397 13.5455744,29.2602168 14.4121214,29.5384783 L14.4121214,28.4358423 C16.0257242,28.8337993 17.3507926,28.2650357 18.5983711,27.3952114 C18.9834611,27.126761 19.379311,26.8733542 19.7729901,26.6172378 C20.4617538,26.1691725 21.203509,26.1546093 21.9692219,26.1806946 L22.389085,26.1965929 C22.5297151,26.2016619 22.6709626,26.2057134 22.812653,26.2063862 L22.812653,29.5158661 C23.6573027,29.226859 23.6885441,29.1863065 23.6887309,28.4130982 C23.6887309,24.7391675 23.689016,21.0651433 23.6874115,17.3910258 C23.6873171,17.2114359 23.6702335,17.0319394 23.6618332,16.8675801 Z M25.8146565,19.9570494 C25.4939369,20.0373136 25.4812893,20.2054105 25.4817389,20.4561075 C25.4859141,22.7450843 25.4836489,25.0341546 25.483177,27.3231315 L25.483177,27.9976681 C25.9298059,27.7010925 26.3022484,27.4538527 26.6241006,27.2401576 L26.6241006,25.1870209 C27.1549208,25.5363896 27.6333575,25.8512793 28.115947,26.1690655 C29.4853763,25.1385261 30.7997792,24.0647243 31.8404662,22.7249949 C32.318714,22.1094184 32.6807742,21.3862 32.9889406,20.6669995 C33.2098955,20.1515896 32.9749717,19.7429805 32.4397154,19.5618022 C31.9851581,19.4078146 31.4993595,19.30064 31.0208285,19.2679363 C29.2413915,19.1462787 27.5251925,19.529192 25.8146565,19.9570494 Z M11.647307,26.3296873 C11.2108716,26.6194418 10.8352201,26.8688307 10.4121873,27.1497086 C10.8545689,27.4393697 11.2255013,27.6824047 11.647307,27.9586106 L11.647307,26.3296873 Z M23.6554151,13.8686532 L13.4811096,13.8686532 L13.4811096,15.0209438 L23.6554151,15.0209438 L23.6554151,13.8686532 Z M21.5225181,8.02383504 C22.1405696,8.03123888 22.5996857,8.50667621 22.5947601,9.13392688 C22.589904,9.74623148 22.1069927,10.2062384 21.4800613,10.1959975 C20.8781045,10.1861027 20.4235671,9.71779243 20.4223687,9.10624897 C20.4212084,8.49262967 20.9052297,8.01650039 21.5225181,8.02383504 Z M15.6213275,5.06907699 C16.4453954,5.07894878 17.0575495,5.71286522 17.0509821,6.54919945 C17.0445073,7.36560558 16.4006262,7.97894811 15.5647185,7.96529367 C14.7621102,7.95210053 14.156061,7.32768685 14.1544828,6.51229557 C14.152916,5.6941365 14.7982771,5.05929746 15.6213275,5.06907699 Z M20.3721595,0.000139345407 C21.4022454,0.012479081 22.1674388,0.804874627 22.1592296,1.85029242 C22.151136,2.87080008 21.3462838,3.63747824 20.3013982,3.62041019 C19.2981369,3.60391877 18.5405745,2.82340166 18.5386018,1.80416256 C18.5366434,0.781463727 19.3433455,-0.0120850656 20.3721595,0.000139345407 Z" id="Combined-Shape" fill="#231F20"></path>
            </g>
        </g>
    </g>
</svg>